<svg version="1.1" xmlns="http://www.w3.org/2000/svg" xmlns:xlink="http://www.w3.org/1999/xlink" width="375" height="678" viewBox="0,0,382.55709,671.86612"><g transform="translate(5.80158,3.50203)"><g data-paper-data="{&quot;isPaintingLayer&quot;:true}" fill-rule="nonzero" stroke-linecap="butt" stroke-linejoin="miter" stroke-miterlimit="10" stroke-dasharray="" stroke-dashoffset="0" style="mix-blend-mode: normal"><path d="M-1.35034,-2.5h373.69462v594.58383l-372.95348,-30.75433z" fill="#99ffff" stroke="#ccffff" stroke-width="2.00406"/><path d="M345.14852,548.69055c9.36491,-0.54497 19.90561,4.32745 25.64347,13.8079c6.10964,10.04892 4.43553,25.03637 3.91931,37.75139c0.25196,13.08372 1.28441,28.0697 -4.70317,38.70619c-5.53182,9.85208 -15.6078,17.04248 -24.85961,16.96609c-13.76349,-0.11311 -29.4452,-6.00791 -39.58054,-15.7131c-10.13533,-9.70666 -16.40958,-23.1106 -16.40958,-37.90269c0,-14.79208 6.27425,-28.19603 16.40958,-37.90269c10.13533,-9.70519 25.82712,-14.92722 39.58054,-15.7131z" fill="#00cc44" stroke="#00cc44" stroke-width="2.88236"/><path d="M61.56198,538.65089c11.97983,0 22.83506,3.92353 30.69511,10.26162c7.86005,6.33905 12.7258,15.09264 12.7258,24.75278c0,9.66013 -4.86575,18.41373 -12.7258,24.75277c-7.86005,6.33808 -18.71528,10.26162 -30.69511,10.26162c-11.97983,0 -22.83506,-3.92353 -30.69511,-10.26162c-7.86005,-6.33905 -12.7258,-15.09264 -12.7258,-24.75277c0,-9.66013 4.86575,-18.41373 12.7258,-24.75278c7.86005,-6.33808 18.71528,-10.26162 30.69511,-10.26162z" fill="#00cc44" stroke="#00cc44" stroke-width="2.06637"/><path d="M149.73157,530.80263c15.44767,0 29.4452,6.0079 39.58053,15.71309c10.13533,9.70666 16.40958,23.11061 16.40958,37.90269c0,14.79208 -6.27425,28.19603 -16.40958,37.90269c-10.13533,9.70519 -24.13286,15.7131 -39.58053,15.7131c-15.44767,0 -29.4452,-6.00791 -39.58054,-15.7131c-10.13533,-9.70666 -16.40958,-23.11061 -16.40958,-37.90269c0,-14.79208 6.27425,-28.19603 16.40958,-37.90269c10.13533,-9.70519 24.13286,-15.71309 39.58054,-15.71309z" fill="#00cc44" stroke="#00cc44" stroke-width="2.88236"/><path d="M249.1883,538.95667c15.44767,0 29.4452,6.00791 39.58053,15.7131c10.13533,9.70666 16.40958,23.1106 16.40958,37.90269c0,14.79208 -6.27425,28.19603 -16.40958,37.90269c-10.13533,9.70519 -24.13286,15.71309 -39.58053,15.71309c-15.44767,0 -29.4452,-6.0079 -39.58054,-15.71309c-10.13533,-9.70666 -16.40958,-23.11061 -16.40958,-37.90269c0,-14.79208 6.27425,-28.19603 16.40958,-37.90269c10.13533,-9.70519 24.13286,-15.7131 39.58054,-15.7131z" fill="#00cc44" stroke="#00cc44" stroke-width="2.88236"/><path d="M-2.16766,546.21435c4.61948,-3.27504 12.58641,10.51967 17.55151,19.56681c3.74152,6.80238 7.97618,15.27395 7.97618,24.75278c0,9.47883 -3.133,20.63643 -7.97618,24.75278l-16.00026,-3.84007l-0.76202,-35.63793c-0.24983,-11.86748 -4.5509,-27.85515 -0.78924,-29.59436z" fill="#00cc44" stroke="#00cc44" stroke-width="1.65924"/><path d="M0.94182,580.87203l365.19271,-3.05777l6.21605,61.15527l-372.96276,5.09628z" fill="#00cc44" stroke="#00cc44" stroke-width="2"/><path d="M-4.48752,641.63661h376.82838v25.41341h-376.82838z" fill="#663b00" stroke="#663b00" stroke-width="2.62812"/></g></g></svg>