<svg version="1.1" xmlns="http://www.w3.org/2000/svg" xmlns:xlink="http://www.w3.org/1999/xlink" width="121.83447" height="172.29432" viewBox="0,0,121.83447,172.29432"><defs><linearGradient x1="260.02863" y1="198.154" x2="277.83683" y2="173.6675" gradientUnits="userSpaceOnUse" id="color-1"><stop offset="0" stop-color="#ac7f2e"/><stop offset="1" stop-color="#d29839"/></linearGradient><linearGradient x1="192.90973" y1="198.1" x2="176.67623" y2="172.4613" gradientUnits="userSpaceOnUse" id="color-2"><stop offset="0" stop-color="#ac7f2e"/><stop offset="1" stop-color="#d29839"/></linearGradient><linearGradient x1="247.00863" y1="164.7468" x2="247.00863" y2="222.2519" gradientUnits="userSpaceOnUse" id="color-3"><stop offset="0" stop-color="#9f7a29"/><stop offset="1" stop-color="#d29839"/></linearGradient><linearGradient x1="238.70343" y1="176.2081" x2="238.70343" y2="214.0614" gradientUnits="userSpaceOnUse" id="color-4"><stop offset="0" stop-color="#f3b271"/><stop offset="1" stop-color="#ffcb99"/></linearGradient><linearGradient x1="280.41553" y1="114.25" x2="253.91553" y2="114.25" gradientUnits="userSpaceOnUse" id="color-5"><stop offset="0" stop-color="#cbbd7c"/><stop offset="1" stop-color="#b4812d"/></linearGradient><linearGradient x1="198.66553" y1="114.5" x2="172.16553" y2="114.5" gradientUnits="userSpaceOnUse" id="color-6"><stop offset="0" stop-color="#b4812d"/><stop offset="1" stop-color="#cbbd7c"/></linearGradient><linearGradient x1="247.66613" y1="144.9491" x2="247.66613" y2="167.1171" gradientUnits="userSpaceOnUse" id="color-7"><stop offset="0" stop-color="#ffcb6b"/><stop offset="1" stop-color="#ffcb99"/></linearGradient><linearGradient x1="261.16553" y1="152.75" x2="248.66553" y2="152.75" gradientUnits="userSpaceOnUse" id="color-8"><stop offset="0" stop-color="#fe9e6c"/><stop offset="1" stop-color="#ffcb99"/></linearGradient><linearGradient x1="203.41553" y1="151.5" x2="190.91553" y2="151.5" gradientUnits="userSpaceOnUse" id="color-9"><stop offset="0" stop-color="#fe9e6c"/><stop offset="1" stop-color="#ffcb99"/></linearGradient></defs><g transform="translate(-172.16553,-81.49652)"><g data-paper-data="{&quot;isPaintingLayer&quot;:true}" fill-rule="nonzero" stroke-linejoin="miter" stroke-miterlimit="10" stroke-dasharray="" stroke-dashoffset="0" style="mix-blend-mode: normal"><g data-paper-data="{&quot;index&quot;:null}" stroke="none" stroke-width="1" stroke-linecap="round"><path d="M209.91553,214.05c4.167,-0.258 9.699,1.222 11.85,3.7c1.199,1.272 -3.697,2.166 -5.15,3.8c-1.415,1.59 -2.391,3.559 -3.1,5.6c-0.628,1.8 -0.723,3.767 -0.85,5.75c-0.294,4.604 0.468,9.309 -0.35,13.85c-0.147,1.149 -1.376,0.852 -2.15,0.9c-1.694,0.105 -4.585,1.218 -5.25,-0.4c-1.93,-5.271 -1.066,-11.239 -1.25,-16.85c-0.059,-1.787 0.312,-3.508 0.7,-5.325c0.469,-2.186 1,-4.408 1.95,-6.425c0.927,-1.712 1.659,-4.48 3.6,-4.6z" fill="#b4852d"/><path d="M207.64053,243.5c1.754,-0.185 3.747,0.63 5.037,1.649c1.29,1.018 1.791,2.51 2.088,3.976c0.239,1.183 0.436,2.955 -0.6,3.575c-1.827,1.093 -4.256,0.655 -6.4,0.65c-2.042,0.005 -4.323,0.378 -6.1,-0.65c-1.264,-0.731 -1.95,-2.545 -1.8,-4c0.129,-1.216 1.479,-1.996 2.5,-2.7c1.603,-1.095 3.313,-2.292 5.275,-2.5z" fill="#fdcb96"/><path d="M208.96553,243.35c1.319,0.071 2.788,0.027 3.888,0.733c0.816,0.522 1.281,1.725 1.212,2.767c-0.013,0.483 -0.803,0.608 -1.4,0.7c-2.305,0.342 -4.611,0.513 -7,0.4c-1.073,-0.052 -2.254,-0.206 -3.1,-0.9c-0.438,-0.361 -0.102,-1.153 0.15,-1.7c0.324,-0.698 0.881,-1.455 1.6,-1.65c1.495,-0.514 3.132,-0.431 4.65,-0.35z" fill="#cc9832"/></g><path d="M292.51553,180.85c1.354,0.062 2.06,3.244 0.9,3.9c-4.107,2.321 -9.313,1.434 -13.6,3.25c-3.349,1.42 -6.519,3.408 -8.8,6.1c-1.783,2.14 -2.41,5.112 -2.85,7.75c-0.729,4.375 0.024,8.857 -0.75,13.3c-0.517,2.968 -1.021,6.32 -3.1,8.5c-1.932,2.026 -5.119,2.876 -8,3.2c-4.632,0.4 -9.442,0.078 -14.029,-1.076c-6.965,-1.755 -17.393,-5.022 -20.121,-7.774c-1.55,-1.563 7.221,-2.076 10.85,-1.65c2.355,0.277 4.07,2.955 6.4,3.8c3.238,1.175 6.625,1.605 10,1.95c2.812,0.29 5.936,0.752 8.75,-0.2c1.673,-0.52 3.093,-2.118 3.75,-3.9c1.139,-3.097 0.729,-6.511 1.1,-9.85c0.406,-3.66 0.243,-7.431 1.15,-11c0.54,-2.125 1.526,-4.253 3,-5.9c2.694,-2.793 5.664,-5.657 9.25,-7.15c5.049,-2.102 10.715,-3.496 16.1,-3.25z" data-paper-data="{&quot;index&quot;:null}" fill="#a97a2a" stroke="none" stroke-width="1" stroke-linecap="round"/><g data-paper-data="{&quot;index&quot;:null}" stroke="none" stroke-width="1"><path d="M272.02773,174.2026c-0.8595,-0.719 -2.9281,-0.3415 -3.1706,-1.3785c-0.1676,-1.8183 1.2846,-3.5431 2.2791,-4.834c0.7001,-0.9116 1.7885,-1.6261 2.9078,-1.8186c1.1199,-0.1933 2.3011,0.0426 3.2772,0.7525c0.9762,0.7099 1.5645,1.761 1.7256,2.8859c0.1618,1.1242 -0.1908,2.3775 -0.8341,3.3266c-0.9078,1.3417 -2.1101,3.2618 -3.8966,3.6578c-1.0576,0.0939 -1.4103,-1.8541 -2.2884,-2.5917z" fill="#fccd97" stroke-linecap="round"/><path d="M248.96293,188.3087c-2.4017,-0.1405 -4.9274,-1.4061 -6.5986,-3.2533c-1.184,-1.3099 -2.1334,-4.3077 -0.8271,-5.2384c1.59,-1.1237 4.4291,1.2836 6.6721,1.452c2.9716,0.0913 5.9953,0.1128 8.8409,-0.6801c2.5766,-0.724 5.1092,-2.5298 7.3889,-4.2091c2.4624,-1.8148 3.8427,-6.076 7.058,-6.3045c2.313,-0.2271 5.8159,3.1836 4.779,5.3303c-2.3923,4.9471 -7.4332,8.2314 -12.2965,10.532c-4.5188,2.1517 -9.9229,2.5368 -15.0167,2.3711z" fill="url(#color-1)" stroke-linecap="butt"/><path d="M271.53593,174.7315c-1.0594,-0.7705 -1.8555,-1.6957 -2.2846,-2.5679c-0.4297,-0.8714 -0.4923,-1.6897 -0.0865,-2.2478c0.4059,-0.558 1.2037,-0.7505 2.1651,-0.6103c0.9619,0.1395 2.0874,0.6118 3.1469,1.3823c1.0594,0.7705 1.8555,1.6957 2.2846,2.5679c0.4296,0.8713 0.4923,1.6897 0.0864,2.2477c-0.4058,0.5581 -1.2037,0.7506 -2.165,0.6104c-0.962,-0.1395 -2.0874,-0.6118 -3.1469,-1.3823z" fill="#cd9934" stroke-linecap="round"/></g><g data-paper-data="{&quot;index&quot;:null}" stroke="none" stroke-width="1"><path d="M182.24583,173.7173c-0.9853,0.5338 -1.397,2.5959 -2.4503,2.4391c-1.752,-0.5146 -2.82,-2.5003 -3.6534,-3.9007c-0.5893,-0.9869 -0.8522,-2.262 -0.6185,-3.3734c0.2332,-1.1123 0.8879,-2.1233 1.9076,-2.769c1.0198,-0.6457 2.2137,-0.8051 3.3189,-0.5402c1.1046,0.2641 2.1396,1.0539 2.7848,2.0018c0.9125,1.3384 2.2542,3.1639 1.9636,4.9706c-0.3025,1.0177 -2.2434,0.6274 -3.2527,1.1718z" fill="#fccd97" stroke-linecap="round"/><path d="M189.95313,186.0414c-4.8374,-2.7107 -9.7826,-6.545 -11.7767,-11.7768c-0.8548,-2.2474 2.8183,-5.3873 5.1118,-5.012c3.194,0.4348 4.2974,4.7759 6.638,6.7453c2.1671,1.8224 4.5782,3.7874 7.103,4.6756c2.7887,0.9742 5.8075,1.1472 8.7789,1.2471c2.2491,-0.0238 4.6793,-1.9507 6.7516,-1.0199c1.2841,0.5812 1.5316,3.5255 0.3656,4.5029c-2.8568,2.0514 -6.6814,2.7947 -10.265,2.9485c-4.2892,0.1759 -8.8382,-0.1408 -12.7072,-2.3107z" fill="url(#color-2)" stroke-linecap="butt"/><path d="M182.67193,174.2238c-1.1068,0.7008 -2.2603,1.0998 -3.2292,1.1771c-0.9684,0.0781 -1.7522,-0.1653 -2.1213,-0.7483c-0.3691,-0.583 -0.254,-1.3956 0.2308,-2.2375c0.4843,-0.8428 1.3382,-1.7149 2.445,-2.4157c1.1068,-0.7008 2.2603,-1.0997 3.2292,-1.1771c0.9684,-0.0781 1.7523,0.1653 2.1214,0.7483c0.3691,0.583 0.254,1.3956 -0.2309,2.2376c-0.4842,0.8428 -1.3382,1.7148 -2.445,2.4156z" fill="#cd9934" stroke-linecap="round"/></g><g data-paper-data="{&quot;index&quot;:null}" stroke="none" stroke-width="1" stroke-linecap="round"><path d="M245.51553,218.75c0.95,2.017 1.481,4.239 1.95,6.425c0.388,1.817 0.759,3.538 0.7,5.325c-0.184,5.611 0.68,11.579 -1.25,16.85c-0.665,1.618 -3.556,0.505 -5.25,0.4c-0.774,-0.048 -2.003,0.249 -2.15,-0.9c-0.818,-4.541 -0.056,-9.246 -0.35,-13.85c-0.127,-1.983 -0.222,-3.95 -0.85,-5.75c-0.709,-2.041 -1.685,-4.01 -3.1,-5.6c-1.453,-1.634 -6.349,-2.528 -5.15,-3.8c2.151,-2.478 7.683,-3.958 11.85,-3.7c1.941,0.12 2.673,2.888 3.6,4.6z" fill="#b4852d"/><path d="M248.86553,246.35c1.021,0.704 2.371,1.484 2.5,2.7c0.15,1.455 -0.536,3.269 -1.8,4c-1.777,1.028 -4.058,0.655 -6.1,0.65c-2.144,0.005 -4.573,0.443 -6.4,-0.65c-1.036,-0.62 -0.839,-2.392 -0.6,-3.575c0.297,-1.466 0.798,-2.958 2.088,-3.976c1.29,-1.019 3.283,-1.834 5.037,-1.649c1.962,0.208 3.672,1.405 5.275,2.5z" fill="#fdcb96"/><path d="M246.86553,243.85c0.719,0.195 1.276,0.952 1.6,1.65c0.252,0.547 0.588,1.339 0.15,1.7c-0.846,0.694 -2.027,0.848 -3.1,0.9c-2.389,0.113 -4.695,-0.058 -7,-0.4c-0.597,-0.092 -1.387,-0.217 -1.4,-0.7c-0.069,-1.042 0.396,-2.245 1.212,-2.767c1.1,-0.706 2.569,-0.662 3.888,-0.733c1.518,-0.081 3.155,-0.164 4.65,0.35z" fill="#cc9832"/></g><g data-paper-data="{&quot;index&quot;:null}" stroke="none" stroke-linecap="round"><path d="M243.32733,165.57c2.8865,0.237 2.65,-0.3357 2.8157,3.4181c0.6645,15.0123 1.7393,30.0291 -0.4022,44.8151c-0.5358,3.6961 -3.6974,5.952 -6.8382,7.216c-4.3249,1.7166 -9.4414,1.1393 -14.0785,1.1393c-4.1061,0 -8.4327,0.5211 -12.0673,-1.1393c-2.8704,-1.3111 -5.6057,-3.2981 -6.0337,-6.8362c-1.7296,-14.7921 -0.584,-29.7314 0,-44.4353c0.1464,-3.6764 -0.9573,-3.7721 2.0112,-4.1777c11.3691,-1.2351 23.0438,-0.951 34.593,0z" fill="url(#color-3)" stroke-width="1.56471"/><path d="M236.41553,176.75c1.794,0.156 1.647,-0.221 1.75,2.25c0.413,9.882 1.081,19.767 -0.25,29.5c-0.333,2.433 -2.298,3.918 -4.25,4.75c-2.688,1.13 -5.868,0.75 -8.75,0.75c-2.552,0 -5.241,0.343 -7.5,-0.75c-1.784,-0.863 -3.484,-2.171 -3.75,-4.5c-1.075,-9.737 -0.363,-19.571 0,-29.25c0.091,-2.42 -0.595,-2.483 1.25,-2.75c7.066,-0.813 14.322,-0.626 21.5,0z" fill="url(#color-4)" stroke-width="1"/><path d="M227.32953,207.69c0.362,0.271 0.586,0.646 0.586,1.06c0,0.414 -0.224,0.789 -0.586,1.06c-0.362,0.272 -0.862,0.44 -1.414,0.44c-0.552,0 -1.052,-0.168 -1.414,-0.44c-0.362,-0.271 -0.586,-0.646 -0.586,-1.06c0,-0.414 0.224,-0.789 0.586,-1.06c0.362,-0.272 0.862,-0.44 1.414,-0.44c0.552,0 1.052,0.168 1.414,0.44z" fill="#fccded" stroke-width="1"/></g><g data-paper-data="{&quot;index&quot;:null}" fill="#cd9934" stroke="none" stroke-width="1" stroke-linecap="butt"><path d="M250.82753,172.845c1.29,1.448 2.088,3.448 2.088,5.655c0,2.207 -0.798,4.207 -2.088,5.655c-1.29,1.449 -3.071,2.345 -5.037,2.345c-1.966,0 -3.747,-0.896 -5.037,-2.345c-1.29,-1.448 -2.088,-3.448 -2.088,-5.655c0,-2.207 0.798,-4.207 2.088,-5.655c1.29,-1.449 3.071,-2.345 5.037,-2.345c1.966,0 3.747,0.896 5.037,2.345z"/><path d="M238.22753,172.595c1.29,1.448 2.088,3.448 2.088,5.655c0,2.207 -0.798,4.207 -2.088,5.655c-1.29,1.449 -3.071,2.345 -5.037,2.345c-1.966,0 -3.747,-0.896 -5.037,-2.345c-1.29,-1.448 -2.088,-3.448 -2.088,-5.655c0,-2.207 0.798,-4.207 2.088,-5.655c1.29,-1.449 3.071,-2.345 5.037,-2.345c1.966,0 3.747,0.896 5.037,2.345z"/><path d="M224.32753,172.595c1.29,1.448 2.088,3.448 2.088,5.655c0,2.207 -0.798,4.207 -2.088,5.655c-1.29,1.449 -3.071,2.345 -5.037,2.345c-1.966,0 -3.747,-0.896 -5.037,-2.345c-1.29,-1.448 -2.088,-3.448 -2.088,-5.655c0,-2.207 0.798,-4.207 2.088,-5.655c1.29,-1.449 3.071,-2.345 5.037,-2.345c1.966,0 3.747,0.896 5.037,2.345z"/><path d="M210.57753,172.345c1.29,1.448 2.088,3.448 2.088,5.655c0,2.207 -0.798,4.207 -2.088,5.655c-1.29,1.449 -3.071,2.345 -5.037,2.345c-1.966,0 -3.747,-0.896 -5.037,-2.345c-1.29,-1.448 -2.088,-3.448 -2.088,-5.655c0,-2.207 0.798,-4.207 2.088,-5.655c1.29,-1.449 3.071,-2.345 5.037,-2.345c1.966,0 3.747,0.896 5.037,2.345z"/><path d="M242.39453,170.045c4.028,1.109 6.521,2.64 6.521,4.33c0,1.69 -2.493,3.221 -6.521,4.33c-4.028,1.109 -9.59,1.795 -15.729,1.795c-6.139,0 -11.701,-0.686 -15.729,-1.795c-4.028,-1.109 -6.521,-2.64 -6.521,-4.33c0,-1.69 2.493,-3.221 6.521,-4.33c4.028,-1.109 9.59,-1.795 15.729,-1.795c6.139,0 11.701,0.686 15.729,1.795z"/></g><g data-paper-data="{&quot;index&quot;:null}" stroke="none" stroke-linecap="butt"><path d="M276.53253,117.914c2.398,2.262 3.883,5.387 3.883,8.836c0,3.449 -1.485,6.574 -3.883,8.836c-2.399,2.263 -5.711,3.664 -9.367,3.664c-3.656,0 -6.968,-1.401 -9.367,-3.664c-2.398,-2.262 -3.883,-5.387 -3.883,-8.836c0,-3.449 1.485,-6.574 3.883,-8.836c2.399,-2.263 5.711,-3.664 9.367,-3.664c3.656,0 6.968,1.401 9.367,3.664z" fill="url(#color-5)" stroke-width="1"/><path d="M273.78453,121.2954c1.471,1.4259 2.381,3.3946 2.381,5.5671c0,2.1724 -0.91,4.1412 -2.381,5.5671c-1.471,1.4259 -3.502,2.3079 -5.744,2.3079c-2.242,0 -4.273,-0.882 -5.744,-2.3079c-1.471,-1.4259 -2.381,-3.3947 -2.381,-5.5671c0,-2.1725 0.91,-4.1412 2.381,-5.5671c1.471,-1.4259 3.502,-2.3079 5.744,-2.3079c2.242,0 4.273,0.882 5.744,2.3079z" fill="#fecc99" stroke-width="1.0253"/></g><g data-paper-data="{&quot;index&quot;:null}" stroke="none" stroke-linecap="butt"><path d="M194.78253,118.164c2.398,2.262 3.883,5.387 3.883,8.836c0,3.449 -1.485,6.574 -3.883,8.836c-2.399,2.263 -5.711,3.664 -9.367,3.664c-3.656,0 -6.968,-1.401 -9.367,-3.664c-2.398,-2.262 -3.883,-5.387 -3.883,-8.836c0,-3.449 1.485,-6.574 3.883,-8.836c2.399,-2.263 5.711,-3.664 9.367,-3.664c3.656,0 6.968,1.401 9.367,3.664z" fill="url(#color-6)" stroke-width="1"/><path d="M189.78453,121.5454c1.471,1.4259 2.381,3.3946 2.381,5.5671c0,2.1724 -0.91,4.1412 -2.381,5.5671c-1.471,1.4259 -3.502,2.3079 -5.744,2.3079c-2.242,0 -4.273,-0.882 -5.744,-2.3079c-1.471,-1.4259 -2.381,-3.3947 -2.381,-5.5671c0,-2.1725 0.91,-4.1412 2.381,-5.5671c1.471,-1.4259 3.502,-2.3079 5.744,-2.3079c2.242,0 4.273,0.882 5.744,2.3079z" fill="#fecc99" stroke-width="1.0253"/></g><g data-paper-data="{&quot;index&quot;:null}" stroke="none"><g><g><path d="M254.51863,100.832c7.3431,7.2417 11.8884,17.2417 11.8884,28.2772c0,11.0355 -4.5453,21.0355 -11.8884,28.2771c-7.3431,7.2406 -17.484,11.7229 -28.6749,11.7229c-11.191,0 -21.3319,-4.4823 -28.675,-11.7229c-7.3431,-7.2416 -11.8884,-17.2416 -11.8884,-28.2771c0,-11.0355 4.5453,-21.0355 11.8884,-28.2772c7.3431,-7.2406 17.484,-11.7228 28.675,-11.7228c11.1909,0 21.3318,4.4822 28.6749,11.7228z" fill="#cd9933" stroke-width="1.12676" stroke-linecap="butt"/><path d="M227.41553,109.75c0.54,0.465 -1.171,0.415 -0.5,0c2.682,-1.661 5.217,-5.055 8.5,-5c5.627,0.101 11.351,1.702 15.5,5c4.236,3.482 6.561,9.041 8,14c1.296,4.481 -0.04,9.369 0.5,14c0.135,1.158 0.567,0.981 1,1.5c1.733,2.077 4.075,3.751 5,6.25c1.219,3.306 2.087,6.751 1.25,10c-1.063,4.115 -2.927,8.406 -6.25,10.75c-6,4.077 -13.149,6.456 -20.25,7.5c-9.567,1.405 -19.291,1.683 -28.5,-0.25c-7.673,-1.563 -15.219,-5.096 -21,-10c-2.99,-2.548 -3.595,-7.124 -4.25,-11c-0.394,-2.335 0.29,-4.899 1.25,-7c1.448,-2.632 4.04,-4.479 5.75,-6.75c0.428,-0.568 -0.433,1.354 -0.5,0c-0.269,-5.415 -1.763,-10.976 0,-16c1.969,-5.651 5.94,-10.997 11,-14.5c4.465,-3.023 10.404,-4.34 16,-4c3.096,0.189 5.347,3.643 7.5,5.5z" fill="#ffcb99" stroke-width="1" stroke-linecap="round"/></g><path d="M240.91313,146.7837c3.4017,1.7959 6.7599,5.6852 6.753,9.5c-0.2369,3.8985 -3.879,7.3024 -7.339,9.0525c-4.3677,2.2113 -9.6145,1.7146 -14.408,1.6493c-5.0419,0.0653 -10.5644,0.72 -14.923,-1.6493c-3.3925,-1.8439 -6.6305,-5.6565 -6.5378,-9.5675c0.1808,-3.8321 3.6821,-7.4112 7.2108,-9.2711c4.1319,-2.1678 9.2127,-1.4239 13.9925,-1.4307c5.1082,-0.0058 10.7281,-0.6719 15.2515,1.7168z" fill="url(#color-7)" stroke-width="1.14458" stroke-linecap="round"/><path d="M259.33353,154.435c1.132,1.041 1.832,2.479 1.832,4.065c0,1.586 -0.7,3.024 -1.832,4.065c-1.131,1.041 -2.694,1.685 -4.418,1.685c-1.724,0 -3.287,-0.644 -4.418,-1.685c-1.132,-1.041 -1.832,-2.479 -1.832,-4.065c0,-1.586 0.7,-3.024 1.832,-4.065c1.131,-1.041 2.694,-1.685 4.418,-1.685c1.724,0 3.287,0.644 4.418,1.685z" fill="url(#color-8)" stroke-width="1" stroke-linecap="round"/><path d="M201.58353,153.185c1.132,1.041 1.832,2.479 1.832,4.065c0,1.586 -0.7,3.024 -1.832,4.065c-1.131,1.041 -2.694,1.685 -4.418,1.685c-1.724,0 -3.287,-0.644 -4.418,-1.685c-1.132,-1.041 -1.832,-2.479 -1.832,-4.065c0,-1.586 0.7,-3.024 1.832,-4.065c1.131,-1.041 2.694,-1.685 4.418,-1.685c1.724,0 3.287,0.644 4.418,1.685z" fill="url(#color-9)" stroke-width="1" stroke-linecap="butt"/></g><path d="M232.91553,85.75c-0.257,2.69 -1.3,5.162 -2.636,7.681c-0.499,0.881 -1.67,1.319 -2.739,1.319c-1.069,0 -1.999,-0.609 -2.739,-1.319c-0.648,-0.627 -1.456,-1.438 -1.136,-2.181c0.355,-1.226 1.806,-1.701 2.75,-2.5c1.172,-0.994 2.859,-1.493 3.75,-2.75c0.903,-1.364 0.815,-4.511 1.5,-4.5c0.56,-0.115 1.395,2.649 1.25,4.25z" fill="#cd9933" stroke-width="1" stroke-linecap="round"/></g><path d="M252.06753,128.414c1.358,2.262 2.198,5.387 2.198,8.836c0,3.449 -0.84,6.574 -2.198,8.836c-1.358,2.263 -3.233,3.664 -5.302,3.664c-2.069,0 -3.944,-1.401 -5.302,-3.664c-1.358,-2.262 -2.198,-5.387 -2.198,-8.836c0,-3.449 0.84,-6.574 2.198,-8.836c1.358,-2.263 3.233,-3.664 5.302,-3.664c2.069,0 3.944,1.401 5.302,3.664z" data-paper-data="{&quot;index&quot;:null}" fill="#ffffff" stroke="none" stroke-width="1" stroke-linecap="butt"/><path d="M250.29053,137.1793c0.973,1.2669 1.575,3.0166 1.575,4.9481c0,1.9314 -0.602,3.6812 -1.575,4.948c-0.9731,1.268 -2.3171,2.052 -3.8,2.052c-1.4829,0 -2.8269,-0.784 -3.8,-2.052c-0.973,-1.2668 -1.575,-3.0166 -1.575,-4.948c0,-1.9315 0.602,-3.6812 1.575,-4.9481c0.9731,-1.2679 2.3171,-2.0519 3.8,-2.0519c1.4829,0 2.8269,0.784 3.8,2.0519z" data-paper-data="{&quot;index&quot;:null}" fill="#9a6732" stroke="none" stroke-width="1.14582" stroke-linecap="butt"/><path d="M211.31753,128.914c1.358,2.262 2.198,5.387 2.198,8.836c0,3.449 -0.84,6.574 -2.198,8.836c-1.358,2.263 -3.233,3.664 -5.302,3.664c-2.069,0 -3.944,-1.401 -5.302,-3.664c-1.358,-2.262 -2.198,-5.387 -2.198,-8.836c0,-3.449 0.84,-6.574 2.198,-8.836c1.358,-2.263 3.233,-3.664 5.302,-3.664c2.069,0 3.944,1.401 5.302,3.664z" data-paper-data="{&quot;index&quot;:null}" fill="#ffffff" stroke="none" stroke-width="1" stroke-linecap="butt"/><path d="M209.99053,137.6793c0.973,1.2669 1.575,3.0166 1.575,4.9481c0,1.9314 -0.602,3.6812 -1.575,4.948c-0.9731,1.268 -2.3171,2.052 -3.8,2.052c-1.4829,0 -2.8269,-0.784 -3.8,-2.052c-0.973,-1.2668 -1.575,-3.0166 -1.575,-4.948c0,-1.9315 0.602,-3.6812 1.575,-4.9481c0.9731,-1.2679 2.3171,-2.0519 3.8,-2.0519c1.4829,0 2.8269,0.784 3.8,2.0519z" data-paper-data="{&quot;index&quot;:null}" fill="#9a6732" stroke="none" stroke-width="1.14582" stroke-linecap="butt"/><path d="M230.96353,145.172c1.268,0.724 2.052,1.724 2.052,2.828c0,1.104 -0.784,2.104 -2.052,2.828c-1.267,0.724 -3.017,1.172 -4.948,1.172c-1.931,0 -3.681,-0.448 -4.948,-1.172c-1.268,-0.724 -2.052,-1.724 -2.052,-2.828c0,-1.104 0.784,-2.104 2.052,-2.828c1.267,-0.724 3.017,-1.172 4.948,-1.172c1.931,0 3.681,0.448 4.948,1.172z" data-paper-data="{&quot;index&quot;:null}" fill="#343432" stroke="none" stroke-width="1" stroke-linecap="butt"/><path d="M226.26553,147.9907v7.1945" data-paper-data="{&quot;index&quot;:null}" fill="none" stroke="#343432" stroke-width="2.57151" stroke-linecap="round"/><path d="M233.04153,158.5605c0.5576,0.1049 0.5187,0.3 0.3825,0.7097c-0.6746,1.4617 -1.2368,3.1522 -2.505,4.189c-1.3214,1.0814 -3.158,1.6459 -4.8434,1.6799c-1.6862,0.0301 -3.5272,-0.3939 -4.8661,-1.4215c-1.3574,-1.0431 -1.9266,-2.8518 -2.6409,-4.4171c-0.1463,-0.3888 -0.2325,-0.623 0.3686,-0.7411c2.4035,-0.4733 4.8756,-0.7258 7.3201,-0.718c2.2597,0.0022 4.552,0.2974 6.7842,0.7191z" data-paper-data="{&quot;index&quot;:null}" fill="#343432" stroke="none" stroke-width="1" stroke-linecap="round"/></g></g></svg>